<svg width="1600" height="1100" viewBox="0 0 1600 1100" fill="none" xmlns="http://www.w3.org/2000/svg">
  <rect width="1600" height="1100" fill="#EAF5FA"/>
  <rect x="104" y="98" width="1392" height="904" rx="58" fill="#F7FBFD"/>
  <circle cx="1222" cy="240" r="188" fill="#8FD6FF" fill-opacity="0.82"/>
  <rect x="224" y="226" width="1152" height="648" rx="44" fill="#0E1114"/>
  <path d="M224 502C330 438 436 406 542 406C648 406 754 438 860 502C966 566 1072 598 1178 598C1248 598 1314 584 1376 556" stroke="#8FD6FF" stroke-width="8" stroke-linecap="round"/>
  <path d="M224 618C330 554 436 522 542 522C648 522 754 554 860 618C966 682 1072 714 1178 714C1248 714 1314 700 1376 672" stroke="#D7FF76" stroke-width="8" stroke-linecap="round"/>
  <circle cx="860" cy="618" r="68" fill="#F7FBFD"/>
</svg>